<svg width="26" height="26" viewBox="0 0 26 26" fill="none" xmlns="http://www.w3.org/2000/svg">
<path fill-rule="evenodd" clip-rule="evenodd" d="M12.9993 2.1665C13.2867 2.1665 13.5622 2.28064 13.7654 2.4838C13.9685 2.68697 14.0827 2.96252 14.0827 3.24984V4.40034C14.8667 4.49844 15.6335 4.70328 16.362 5.00917L16.9362 4.01467C17.0068 3.89047 17.1013 3.78147 17.2142 3.69393C17.3271 3.6064 17.4562 3.54206 17.5941 3.50463C17.732 3.46719 17.8759 3.4574 18.0176 3.47582C18.1593 3.49423 18.2959 3.54049 18.4196 3.61193C18.5433 3.68336 18.6517 3.77857 18.7385 3.89206C18.8253 4.00555 18.8888 4.13509 18.9253 4.27321C18.9618 4.41134 18.9706 4.55532 18.9513 4.69687C18.9319 4.83843 18.8848 4.97475 18.8125 5.098L18.2373 6.09467C18.8656 6.57134 19.4268 7.13359 19.9056 7.763L20.9023 7.18667C21.0255 7.11441 21.1618 7.06725 21.3034 7.0479C21.4449 7.02854 21.5889 7.03738 21.7271 7.0739C21.8652 7.11041 21.9947 7.17389 22.1082 7.26068C22.2217 7.34746 22.3169 7.45584 22.3883 7.57957C22.4598 7.70329 22.506 7.83993 22.5245 7.98161C22.5429 8.12329 22.5331 8.26721 22.4956 8.40509C22.4582 8.54297 22.3939 8.67208 22.3063 8.78499C22.2188 8.89791 22.1098 8.99239 21.9856 9.063L20.9889 9.63717C21.2912 10.3533 21.4992 11.1181 21.5988 11.9165H22.7493C23.0367 11.9165 23.3122 12.0306 23.5154 12.2338C23.7185 12.437 23.8327 12.7125 23.8327 12.9998C23.8327 13.2872 23.7185 13.5627 23.5154 13.7659C23.3122 13.969 23.0367 14.0832 22.7493 14.0832H21.5988C21.5007 14.8671 21.2959 15.634 20.99 16.3625L21.9845 16.9367C22.1087 17.0073 22.2177 17.1018 22.3053 17.2147C22.3928 17.3276 22.4571 17.4567 22.4946 17.5946C22.532 17.7325 22.5418 17.8764 22.5234 18.0181C22.505 18.1597 22.4587 18.2964 22.3873 18.4201C22.3158 18.5438 22.2206 18.6522 22.1071 18.739C21.9936 18.8258 21.8641 18.8893 21.726 18.9258C21.5878 18.9623 21.4439 18.9711 21.3023 18.9518C21.1608 18.9324 21.0244 18.8853 20.9012 18.813L19.9045 18.2378C19.4271 18.8673 18.8657 19.4286 18.2362 19.9061L18.8125 20.9028C18.8848 21.026 18.9319 21.1623 18.9513 21.3039C18.9706 21.4454 18.9618 21.5894 18.9253 21.7275C18.8888 21.8657 18.8253 21.9952 18.7385 22.1087C18.6517 22.2222 18.5433 22.3174 18.4196 22.3888C18.2959 22.4603 18.1593 22.5065 18.0176 22.5249C17.8759 22.5434 17.732 22.5336 17.5941 22.4961C17.4562 22.4587 17.3271 22.3944 17.2142 22.3068C17.1013 22.2193 17.0068 22.1103 16.9362 21.9861L16.362 20.9894C15.6336 21.2957 14.8667 21.5009 14.0827 21.5993V22.7498C14.0827 23.0372 13.9685 23.3127 13.7654 23.5159C13.5622 23.719 13.2867 23.8332 12.9993 23.8332C12.712 23.8332 12.4365 23.719 12.2333 23.5159C12.0302 23.3127 11.916 23.0372 11.916 22.7498V21.5993C11.132 21.5012 10.3652 21.2964 9.63668 20.9905L9.06252 21.985C8.9919 22.1092 8.89742 22.2182 8.7845 22.3057C8.67159 22.3933 8.54248 22.4576 8.4046 22.495C8.26672 22.5325 8.1228 22.5423 7.98112 22.5239C7.83944 22.5054 7.70281 22.4592 7.57908 22.3877C7.45535 22.3163 7.34697 22.2211 7.26019 22.1076C7.1734 21.9941 7.10993 21.8646 7.07341 21.7265C7.03689 21.5883 7.02805 21.4444 7.04741 21.3028C7.06676 21.1612 7.11393 21.0249 7.18618 20.9017L7.76143 19.905C7.13187 19.4275 6.57056 18.8662 6.0931 18.2367L5.09643 18.813C4.97318 18.8853 4.83685 18.9324 4.6953 18.9518C4.55375 18.9711 4.40976 18.9623 4.27164 18.9258C4.13352 18.8893 4.00398 18.8258 3.89049 18.739C3.777 18.6522 3.68179 18.5438 3.61036 18.4201C3.53892 18.2964 3.49266 18.1597 3.47425 18.0181C3.45583 17.8764 3.46562 17.7325 3.50305 17.5946C3.54049 17.4567 3.60482 17.3276 3.69236 17.2147C3.77989 17.1018 3.8889 17.0073 4.0131 16.9367L5.00977 16.3625C4.70313 15.6341 4.49756 14.8673 4.39877 14.0832H3.24935C2.96203 14.0832 2.68648 13.969 2.48332 13.7659C2.28015 13.5627 2.16602 13.2872 2.16602 12.9998C2.16602 12.7125 2.28015 12.437 2.48332 12.2338C2.68648 12.0306 2.96203 11.9165 3.24935 11.9165H4.39985C4.49795 11.1325 4.70279 10.3656 5.00868 9.63717L4.01418 9.063C3.76739 8.91832 3.58785 8.6819 3.51472 8.40533C3.4416 8.12876 3.48085 7.8345 3.62388 7.58675C3.76692 7.33901 4.00215 7.1579 4.27823 7.08294C4.55431 7.00799 4.84883 7.04528 5.09752 7.18667L6.09418 7.76192C6.57085 7.13359 7.1331 6.57242 7.76252 6.09359L7.18618 5.09692C7.04479 4.84823 7.0075 4.55371 7.08245 4.27763C7.15741 4.00155 7.33852 3.76633 7.58626 3.62329C7.83401 3.48025 8.12827 3.44101 8.40484 3.51413C8.68141 3.58725 8.91784 3.7668 9.06252 4.01359L9.63668 5.01025C10.365 4.70362 11.1319 4.49805 11.916 4.39925V3.24984C11.916 2.96252 12.0302 2.68697 12.2333 2.4838C12.4365 2.28064 12.712 2.1665 12.9993 2.1665ZM12.9993 14.2511L7.99002 17.1436C8.47365 17.7281 9.05589 18.2234 9.71035 18.6072L9.78943 18.6538C10.7681 19.2088 11.8742 19.5004 12.9993 19.4998C14.0502 19.4998 15.0425 19.2507 15.9211 18.8076L16.2894 18.6072C16.9436 18.223 17.5255 17.7273 18.0087 17.1425L12.9993 14.2511ZM11.916 6.58975C11.2742 6.6981 10.6523 6.90224 10.0711 7.19534L9.78943 7.347L9.71035 7.3925C8.84912 7.89779 8.11588 8.5947 7.56752 9.42917L7.39201 9.71084L7.34652 9.78992C6.79104 10.7685 6.49913 11.8746 6.49935 12.9998C6.49935 13.6823 6.60443 14.3432 6.80052 14.9607L6.9056 15.2673L11.916 12.3748V6.58975ZM14.0827 6.58975V12.3748L19.0931 15.2673C19.3624 14.5417 19.5 13.7738 19.4993 12.9998C19.4993 11.949 19.2502 10.9567 18.8071 10.0781L18.6522 9.78992L18.6175 9.73034L18.6067 9.71084C18.1014 8.84961 17.4045 8.11637 16.57 7.568L16.2093 7.34592C15.6463 7.02633 15.0387 6.79264 14.4066 6.65259L14.0827 6.58975Z" fill="black"/>
</svg>
