<svg width="36" height="36" viewBox="0 0 36 36" fill="none" xmlns="http://www.w3.org/2000/svg">
<path fill-rule="evenodd" clip-rule="evenodd" d="M15.7489 3C13.7158 3.00017 11.7122 3.48655 9.9053 4.41854C8.09839 5.35054 6.54055 6.70113 5.36177 8.35763C4.18298 10.0141 3.41743 11.9285 3.12898 13.9411C2.84053 15.9536 3.03754 18.006 3.70358 19.9269C4.36963 21.8478 5.48539 23.5816 6.95777 24.9836C8.43016 26.3856 10.2165 27.4152 12.1677 27.9864C14.1189 28.5576 16.1784 28.654 18.1744 28.2674C20.1705 27.8808 22.0451 27.0224 23.6419 25.764L29.1199 31.242C29.4028 31.5152 29.7817 31.6664 30.175 31.663C30.5683 31.6596 30.9445 31.5018 31.2226 31.2237C31.5008 30.9456 31.6585 30.5694 31.6619 30.1761C31.6653 29.7828 31.5142 29.4039 31.2409 29.121L25.7629 23.643C27.2449 21.7629 28.1677 19.5036 28.4256 17.1236C28.6835 14.7436 28.2661 12.339 27.2213 10.1851C26.1764 8.03125 24.5462 6.21503 22.5174 4.94435C20.4885 3.67366 18.1429 2.99984 15.7489 3ZM5.99892 15.75C5.99892 13.1641 7.02614 10.6842 8.85462 8.85571C10.6831 7.02723 13.1631 6 15.7489 6C18.3348 6 20.8147 7.02723 22.6432 8.85571C24.4717 10.6842 25.4989 13.1641 25.4989 15.75C25.4989 18.3359 24.4717 20.8158 22.6432 22.6443C20.8147 24.4728 18.3348 25.5 15.7489 25.5C13.1631 25.5 10.6831 24.4728 8.85462 22.6443C7.02614 20.8158 5.99892 18.3359 5.99892 15.75Z" fill="#418CFF"/>
</svg>
