<svg width="36" height="36" viewBox="0 0 36 36" fill="none" xmlns="http://www.w3.org/2000/svg">
<path d="M29.8503 18.9901C29.6099 18.7164 29.4772 18.3644 29.4772 18.0001C29.4772 17.6357 29.6099 17.2838 29.8503 17.0101L31.7703 14.8501C31.9819 14.6141 32.1133 14.3171 32.1456 14.0018C32.178 13.6866 32.1096 13.3691 31.9503 13.0951L28.9503 7.90509C28.7927 7.63137 28.5527 7.4144 28.2645 7.28512C27.9763 7.15583 27.6546 7.12082 27.3453 7.18509L24.5253 7.75509C24.1665 7.82923 23.793 7.76947 23.4752 7.58709C23.1574 7.4047 22.9173 7.11231 22.8003 6.76509L21.8853 4.02009C21.7847 3.72216 21.593 3.46338 21.3373 3.28035C21.0816 3.09732 20.7748 2.99928 20.4603 3.00009H14.4603C14.1332 2.98301 13.8095 3.07348 13.5387 3.25766C13.2678 3.44184 13.0647 3.70962 12.9603 4.02009L12.1203 6.76509C12.0033 7.11231 11.7633 7.4047 11.4455 7.58709C11.1277 7.76947 10.7542 7.82923 10.3953 7.75509L7.50033 7.18509C7.20716 7.14366 6.90828 7.18992 6.64135 7.31805C6.37442 7.44617 6.15138 7.65043 6.00033 7.90509L3.00033 13.0951C2.83707 13.3661 2.76367 13.6817 2.79061 13.9969C2.81755 14.3121 2.94346 14.6107 3.15033 14.8501L5.05533 17.0101C5.29581 17.2838 5.42843 17.6357 5.42843 18.0001C5.42843 18.3644 5.29581 18.7164 5.05533 18.9901L3.15033 21.1501C2.94346 21.3894 2.81755 21.688 2.79061 22.0033C2.76367 22.3185 2.83707 22.6341 3.00033 22.9051L6.00033 28.0951C6.15798 28.3688 6.39801 28.5858 6.68621 28.7151C6.97441 28.8443 7.29607 28.8793 7.60533 28.8151L10.4253 28.2451C10.7842 28.1709 11.1577 28.2307 11.4755 28.4131C11.7933 28.5955 12.0333 28.8879 12.1503 29.2351L13.0653 31.9801C13.1697 32.2906 13.3728 32.5583 13.6437 32.7425C13.9145 32.9267 14.2382 33.0172 14.5653 33.0001H20.5653C20.8798 33.0009 21.1866 32.9029 21.4423 32.7198C21.698 32.5368 21.8897 32.278 21.9903 31.9801L22.9053 29.2351C23.0223 28.8879 23.2624 28.5955 23.5802 28.4131C23.898 28.2307 24.2715 28.1709 24.6303 28.2451L27.4503 28.8151C27.7596 28.8793 28.0813 28.8443 28.3695 28.7151C28.6577 28.5858 28.8977 28.3688 29.0553 28.0951L32.0553 22.9051C32.2146 22.6311 32.283 22.3136 32.2506 21.9983C32.2183 21.683 32.0869 21.3861 31.8753 21.1501L29.8503 18.9901ZM27.6153 21.0001L28.8153 22.3501L26.8953 25.6801L25.1253 25.3201C24.045 25.0993 22.9212 25.2828 21.9672 25.8358C21.0133 26.3888 20.2955 27.2728 19.9503 28.3201L19.3803 30.0001H15.5403L15.0003 28.2901C14.6551 27.2428 13.9374 26.3588 12.9834 25.8058C12.0295 25.2528 10.9057 25.0693 9.82533 25.2901L8.05533 25.6501L6.10533 22.3351L7.30533 20.9851C8.04326 20.1601 8.45123 19.092 8.45123 17.9851C8.45123 16.8782 8.04326 15.8101 7.30533 14.9851L6.10533 13.6351L8.02533 10.3351L9.79533 10.6951C10.8757 10.9159 11.9995 10.7324 12.9534 10.1794C13.9074 9.62636 14.6251 8.74233 14.9703 7.69509L15.5403 6.00009H19.3803L19.9503 7.71009C20.2955 8.75732 21.0133 9.64136 21.9672 10.1944C22.9212 10.7474 24.045 10.9309 25.1253 10.7101L26.8953 10.3501L28.8153 13.6801L27.6153 15.0301C26.8857 15.8532 26.4828 16.9151 26.4828 18.0151C26.4828 19.1151 26.8857 20.1769 27.6153 21.0001ZM17.4603 12.0001C16.2736 12.0001 15.1136 12.352 14.1269 13.0113C13.1402 13.6706 12.3712 14.6076 11.9171 15.704C11.4629 16.8003 11.3441 18.0067 11.5756 19.1706C11.8071 20.3345 12.3786 21.4036 13.2177 22.2427C14.0568 23.0818 15.1259 23.6533 16.2898 23.8848C17.4537 24.1163 18.6601 23.9975 19.7564 23.5434C20.8528 23.0892 21.7899 22.3202 22.4492 21.3335C23.1084 20.3468 23.4603 19.1868 23.4603 18.0001C23.4603 16.4088 22.8282 14.8827 21.703 13.7574C20.5778 12.6322 19.0516 12.0001 17.4603 12.0001ZM17.4603 21.0001C16.867 21.0001 16.287 20.8241 15.7936 20.4945C15.3003 20.1649 14.9158 19.6963 14.6887 19.1481C14.4616 18.6 14.4022 17.9968 14.518 17.4148C14.6337 16.8329 14.9195 16.2983 15.339 15.8788C15.7586 15.4592 16.2931 15.1735 16.8751 15.0577C17.457 14.942 18.0602 15.0014 18.6084 15.2284C19.1566 15.4555 19.6251 15.84 19.9547 16.3334C20.2844 16.8267 20.4603 17.4067 20.4603 18.0001C20.4603 18.7957 20.1443 19.5588 19.5817 20.1214C19.019 20.684 18.256 21.0001 17.4603 21.0001Z" fill="#418CFF"/>
</svg>
