<svg width="36" height="36" viewBox="0 0 36 36" fill="none" xmlns="http://www.w3.org/2000/svg">
<path fill-rule="evenodd" clip-rule="evenodd" d="M7.50099 13.5C7.50099 10.7152 8.60724 8.04451 10.5764 6.07538C12.5455 4.10625 15.2162 3 18.001 3C20.7858 3 23.4565 4.10625 25.4256 6.07538C27.3947 8.04451 28.501 10.7152 28.501 13.5V19.146L31.234 24.612C31.3598 24.8636 31.4192 25.1431 31.4066 25.4241C31.3939 25.7051 31.3097 25.9782 31.1618 26.2175C31.0139 26.4568 30.8073 26.6543 30.5616 26.7912C30.3159 26.9282 30.0393 27 29.758 27H23.812C23.4783 28.2874 22.7266 29.4275 21.6749 30.2414C20.6231 31.0553 19.3309 31.4969 18.001 31.4969C16.6711 31.4969 15.3788 31.0553 14.3271 30.2414C13.2754 29.4275 12.5237 28.2874 12.19 27H6.24399C5.96271 27 5.68609 26.9282 5.44039 26.7912C5.1947 26.6543 4.9881 26.4568 4.84021 26.2175C4.69232 25.9782 4.60806 25.7051 4.59542 25.4241C4.58278 25.1431 4.64218 24.8636 4.76799 24.612L7.50099 19.146V13.5ZM15.403 27C15.6663 27.456 16.045 27.8347 16.5011 28.098C16.9571 28.3613 17.4744 28.4999 18.001 28.4999C18.5276 28.4999 19.0449 28.3613 19.5009 28.098C19.957 27.8347 20.3357 27.456 20.599 27H15.403ZM18.001 6C16.0119 6 14.1042 6.79018 12.6977 8.1967C11.2912 9.60322 10.501 11.5109 10.501 13.5V19.146C10.501 19.6115 10.3926 20.0706 10.1845 20.487L8.42949 24H27.574L25.819 20.487C25.6104 20.0707 25.5015 19.6116 25.501 19.146V13.5C25.501 11.5109 24.7108 9.60322 23.3043 8.1967C21.8978 6.79018 19.9901 6 18.001 6Z" fill="#418CFF"/>
</svg>
