<svg width="26" height="26" viewBox="0 0 26 26" fill="none" xmlns="http://www.w3.org/2000/svg">
<path fill-rule="evenodd" clip-rule="evenodd" d="M6.81719 9.31767C7.02034 9.11458 7.29584 9.00049 7.5831 9.00049C7.87036 9.00049 8.14586 9.11458 8.34902 9.31767L12.9998 13.9684L17.6505 9.31767C17.8548 9.12034 18.1285 9.01114 18.4125 9.01361C18.6966 9.01608 18.9683 9.13001 19.1692 9.33087C19.37 9.53173 19.4839 9.80344 19.4864 10.0875C19.4889 10.3715 19.3797 10.6452 19.1824 10.8495L13.7657 16.2662C13.5625 16.4693 13.287 16.5834 12.9998 16.5834C12.7125 16.5834 12.437 16.4693 12.2339 16.2662L6.81719 10.8495C6.61409 10.6464 6.5 10.3709 6.5 10.0836C6.5 9.79633 6.61409 9.52083 6.81719 9.31767Z" fill="black"/>
</svg>
