<svg width="14" height="8" viewBox="0 0 14 8" fill="none" xmlns="http://www.w3.org/2000/svg">
<path fill-rule="evenodd" clip-rule="evenodd" d="M0.817185 0.31743C1.02034 0.114336 1.29584 0.000244141 1.5831 0.000244141C1.87036 0.000244141 2.14586 0.114336 2.34902 0.31743L6.99977 4.96818L11.6505 0.31743C11.8548 0.120092 12.1285 0.0108979 12.4125 0.0133662C12.6966 0.0158345 12.9683 0.129767 13.1692 0.330626C13.37 0.531485 13.4839 0.803198 13.4864 1.08724C13.4889 1.37129 13.3797 1.64494 13.1824 1.84926L7.76569 7.26593C7.56253 7.46902 7.28703 7.58311 6.99977 7.58311C6.71251 7.58311 6.43701 7.46902 6.23385 7.26593L0.817185 1.84926C0.614092 1.64611 0.5 1.37061 0.5 1.08335C0.5 0.796085 0.614092 0.520585 0.817185 0.31743Z" fill="#418CFF"/>
</svg>
