<svg width="26" height="26" viewBox="0 0 26 26" fill="none" xmlns="http://www.w3.org/2000/svg">
<path fill-rule="evenodd" clip-rule="evenodd" d="M7.69102 7.58327H4.33268C3.75805 7.58327 3.20695 7.81154 2.80062 8.21787C2.39429 8.6242 2.16602 9.1753 2.16602 9.74993V20.5833C2.16602 21.1579 2.39429 21.709 2.80062 22.1153C3.20695 22.5217 3.75805 22.7499 4.33268 22.7499H21.666C22.2407 22.7499 22.7917 22.5217 23.1981 22.1153C23.6044 21.709 23.8327 21.1579 23.8327 20.5833V9.74993C23.8327 9.1753 23.6044 8.6242 23.1981 8.21787C22.7917 7.81154 22.2407 7.58327 21.666 7.58327H18.3077C18.0569 6.36057 17.3917 5.26194 16.4246 4.47299C15.4574 3.68405 14.2475 3.25317 12.9993 3.25317C11.7512 3.25317 10.5413 3.68405 9.57414 4.47299C8.60696 5.26194 7.94179 6.36057 7.69102 7.58327ZM9.93352 7.58327H16.0652C15.8414 6.94894 15.4263 6.39965 14.8772 6.01112C14.3281 5.62259 13.672 5.41395 12.9993 5.41395C12.3267 5.41395 11.6706 5.62259 11.1215 6.01112C10.5724 6.39965 10.1573 6.94894 9.93352 7.58327ZM21.666 12.9999V9.74993H4.33268V12.9999H9.93352C10.1573 12.3656 10.5724 11.8163 11.1215 11.4278C11.6706 11.0393 12.3267 10.8306 12.9993 10.8306C13.672 10.8306 14.3281 11.0393 14.8772 11.4278C15.4263 11.8163 15.8414 12.3656 16.0652 12.9999H21.666ZM16.2493 15.1666H21.666V20.5833H4.33268V15.1666H9.74935C9.74935 16.0286 10.0918 16.8552 10.7013 17.4647C11.3107 18.0742 12.1374 18.4166 12.9993 18.4166C13.8613 18.4166 14.688 18.0742 15.2974 17.4647C15.9069 16.8552 16.2493 16.0286 16.2493 15.1666ZM12.9993 12.9999C12.712 12.9999 12.4365 13.1141 12.2333 13.3172C12.0302 13.5204 11.916 13.7959 11.916 14.0833V15.1666C11.916 15.4539 12.0302 15.7295 12.2333 15.9326C12.4365 16.1358 12.712 16.2499 12.9993 16.2499C13.2867 16.2499 13.5622 16.1358 13.7654 15.9326C13.9685 15.7295 14.0827 15.4539 14.0827 15.1666V14.0833C14.0827 13.7959 13.9685 13.5204 13.7654 13.3172C13.5622 13.1141 13.2867 12.9999 12.9993 12.9999Z" fill="black"/>
</svg>
