<svg width="26" height="26" viewBox="0 0 26 26" fill="none" xmlns="http://www.w3.org/2000/svg">
<path d="M20.5833 3.25C21.158 3.25 21.7091 3.47827 22.1154 3.8846C22.5217 4.29093 22.75 4.84203 22.75 5.41667V20.5833C22.75 21.158 22.5217 21.7091 22.1154 22.1154C21.7091 22.5217 21.158 22.75 20.5833 22.75H5.41667C4.84203 22.75 4.29093 22.5217 3.8846 22.1154C3.47827 21.7091 3.25 21.158 3.25 20.5833V5.41667C3.25 4.84203 3.47827 4.29093 3.8846 3.8846C4.29093 3.47827 4.84203 3.25 5.41667 3.25H20.5833ZM20.5833 9.75H5.41667V20.5833H20.5833V9.75ZM9.20833 16.25C9.49565 16.25 9.7712 16.3641 9.97437 16.5673C10.1775 16.7705 10.2917 17.046 10.2917 17.3333C10.2917 17.6207 10.1775 17.8962 9.97437 18.0994C9.7712 18.3025 9.49565 18.4167 9.20833 18.4167H8.125C7.83768 18.4167 7.56213 18.3025 7.35897 18.0994C7.1558 17.8962 7.04167 17.6207 7.04167 17.3333C7.04167 17.046 7.1558 16.7705 7.35897 16.5673C7.56213 16.3641 7.83768 16.25 8.125 16.25H9.20833ZM13.5417 16.25C13.8178 16.2503 14.0834 16.356 14.2842 16.5456C14.4849 16.7351 14.6058 16.9942 14.6219 17.2698C14.6381 17.5455 14.5484 17.8169 14.3712 18.0287C14.194 18.2404 13.9426 18.3765 13.6684 18.4091L13.5417 18.4167H12.4583C12.1822 18.4164 11.9166 18.3106 11.7159 18.1211C11.5151 17.9315 11.3942 17.6725 11.3781 17.3968C11.3619 17.1212 11.4516 16.8498 11.6288 16.638C11.806 16.4263 12.0574 16.2902 12.3316 16.2576L12.4583 16.25H13.5417ZM9.20833 11.9167C9.48445 11.917 9.75004 12.0227 9.95082 12.2123C10.1516 12.4018 10.2724 12.6609 10.2886 12.9365C10.3048 13.2122 10.2151 13.4836 10.0379 13.6953C9.86066 13.9071 9.60927 14.0431 9.33508 14.0758L9.20833 14.0833H8.125C7.84888 14.083 7.5833 13.9773 7.38252 13.7877C7.18174 13.5982 7.06091 13.3391 7.04473 13.0635C7.02855 12.7878 7.11823 12.5164 7.29545 12.3047C7.47268 12.0929 7.72406 11.9569 7.99825 11.9243L8.125 11.9167H9.20833ZM13.5417 11.9167C13.829 11.9167 14.1045 12.0308 14.3077 12.234C14.5109 12.4371 14.625 12.7127 14.625 13C14.625 13.2873 14.5109 13.5629 14.3077 13.766C14.1045 13.9692 13.829 14.0833 13.5417 14.0833H12.4583C12.171 14.0833 11.8955 13.9692 11.6923 13.766C11.4891 13.5629 11.375 13.2873 11.375 13C11.375 12.7127 11.4891 12.4371 11.6923 12.234C11.8955 12.0308 12.171 11.9167 12.4583 11.9167H13.5417ZM17.875 11.9167C18.1511 11.917 18.4167 12.0227 18.6175 12.2123C18.8183 12.4018 18.9391 12.6609 18.9553 12.9365C18.9715 13.2122 18.8818 13.4836 18.7045 13.6953C18.5273 13.9071 18.2759 14.0431 18.0018 14.0758L17.875 14.0833H16.7917C16.5155 14.083 16.25 13.9773 16.0492 13.7877C15.8484 13.5982 15.7276 13.3391 15.7114 13.0635C15.6952 12.7878 15.7849 12.5164 15.9621 12.3047C16.1393 12.0929 16.3907 11.9569 16.6649 11.9243L16.7917 11.9167H17.875ZM20.5833 5.41667H5.41667V7.58333H20.5833V5.41667Z" fill="black"/>
</svg>
