<svg width="26" height="26" viewBox="0 0 26 26" fill="none" xmlns="http://www.w3.org/2000/svg">
<path d="M15.166 3.25C15.7407 3.25 16.2918 3.47827 16.6981 3.8846C17.1044 4.29093 17.3327 4.84203 17.3327 5.41667V8.66667H21.666C22.2407 8.66667 22.7918 8.89494 23.1981 9.30127C23.6044 9.7076 23.8327 10.2587 23.8327 10.8333V20.5833C23.8327 21.158 23.6044 21.7091 23.1981 22.1154C22.7918 22.5217 22.2407 22.75 21.666 22.75H4.33268C3.75805 22.75 3.20695 22.5217 2.80062 22.1154C2.39429 21.7091 2.16602 21.158 2.16602 20.5833V14.0833C2.16602 13.5087 2.39429 12.9576 2.80062 12.5513C3.20695 12.1449 3.75805 11.9167 4.33268 11.9167H8.66602V5.41667C8.66602 4.84203 8.89429 4.29093 9.30062 3.8846C9.70695 3.47827 10.258 3.25 10.8327 3.25H15.166ZM15.166 5.41667H10.8327V20.5833H15.166V5.41667ZM21.666 10.8333H17.3327V20.5833H21.666V10.8333ZM8.66602 14.0833H4.33268V20.5833H8.66602V14.0833Z" fill="black"/>
</svg>
