<svg width="36" height="36" viewBox="0 0 36 36" fill="none" xmlns="http://www.w3.org/2000/svg">
<path d="M30 27C30.3823 27.0004 30.75 27.1468 31.0281 27.4093C31.3061 27.6717 31.4734 28.0304 31.4958 28.4121C31.5182 28.7938 31.394 29.1696 31.1486 29.4627C30.9032 29.7559 30.5551 29.9443 30.1755 29.9895L30 30H6C5.61768 29.9996 5.24995 29.8532 4.97195 29.5907C4.69394 29.3283 4.52665 28.9696 4.50424 28.5879C4.48184 28.2062 4.60601 27.8304 4.8514 27.5373C5.09678 27.2441 5.44486 27.0557 5.8245 27.0105L6 27H30ZM30 16.5C30.3978 16.5 30.7794 16.658 31.0607 16.9393C31.342 17.2206 31.5 17.6022 31.5 18C31.5 18.3978 31.342 18.7794 31.0607 19.0607C30.7794 19.342 30.3978 19.5 30 19.5H6C5.60218 19.5 5.22064 19.342 4.93934 19.0607C4.65804 18.7794 4.5 18.3978 4.5 18C4.5 17.6022 4.65804 17.2206 4.93934 16.9393C5.22064 16.658 5.60218 16.5 6 16.5H30ZM30 6C30.3978 6 30.7794 6.15804 31.0607 6.43934C31.342 6.72064 31.5 7.10218 31.5 7.5C31.5 7.89782 31.342 8.27936 31.0607 8.56066C30.7794 8.84196 30.3978 9 30 9H6C5.60218 9 5.22064 8.84196 4.93934 8.56066C4.65804 8.27936 4.5 7.89782 4.5 7.5C4.5 7.10218 4.65804 6.72064 4.93934 6.43934C5.22064 6.15804 5.60218 6 6 6H30Z" fill="black"/>
</svg>
