<svg width="36" height="36" viewBox="0 0 36 36" fill="none" xmlns="http://www.w3.org/2000/svg">
<path fill-rule="evenodd" clip-rule="evenodd" d="M15.7509 3C13.7178 3.00017 11.7142 3.48655 9.90725 4.41854C8.10034 5.35054 6.54251 6.70113 5.36372 8.35763C4.18494 10.0141 3.41938 11.9285 3.13093 13.9411C2.84248 15.9536 3.03949 18.006 3.70554 19.9269C4.37158 21.8478 5.48734 23.5816 6.95972 24.9836C8.43211 26.3856 10.2184 27.4152 12.1696 27.9864C14.1209 28.5576 16.1804 28.654 18.1764 28.2674C20.1724 27.8808 22.047 27.0224 23.6439 25.764L29.1219 31.242C29.4048 31.5152 29.7837 31.6664 30.177 31.663C30.5703 31.6596 30.9465 31.5018 31.2246 31.2237C31.5027 30.9456 31.6605 30.5694 31.6639 30.1761C31.6673 29.7828 31.5161 29.4039 31.2429 29.121L25.7649 23.643C27.2469 21.7629 28.1696 19.5036 28.4275 17.1236C28.6854 14.7436 28.2681 12.339 27.2232 10.1851C26.1783 8.03125 24.5482 6.21503 22.5193 4.94435C20.4904 3.67366 18.1448 2.99984 15.7509 3ZM6.00087 15.75C6.00087 13.1641 7.0281 10.6842 8.85658 8.85571C10.6851 7.02723 13.165 6 15.7509 6C18.3367 6 20.8167 7.02723 22.6452 8.85571C24.4736 10.6842 25.5009 13.1641 25.5009 15.75C25.5009 18.3359 24.4736 20.8158 22.6452 22.6443C20.8167 24.4728 18.3367 25.5 15.7509 25.5C13.165 25.5 10.6851 24.4728 8.85658 22.6443C7.0281 20.8158 6.00087 18.3359 6.00087 15.75Z" fill="black"/>
</svg>
