<svg width="183" height="46" viewBox="0 0 183 46" fill="none" xmlns="http://www.w3.org/2000/svg">
<path d="M2.00852 32.8182L4.84233 41.1108H4.95668L7.79048 32.8182H9.45099L5.78693 43H4.01207L0.348011 32.8182H2.00852ZM10.802 43V35.3636H12.2885V43H10.802ZM11.5527 34.1854C11.2942 34.1854 11.0721 34.0992 10.8865 33.9268C10.7042 33.7512 10.6131 33.5424 10.6131 33.3004C10.6131 33.0552 10.7042 32.8464 10.8865 32.674C11.0721 32.4983 11.2942 32.4105 11.5527 32.4105C11.8113 32.4105 12.0317 32.4983 12.214 32.674C12.3996 32.8464 12.4924 33.0552 12.4924 33.3004C12.4924 33.5424 12.3996 33.7512 12.214 33.9268C12.0317 34.0992 11.8113 34.1854 11.5527 34.1854ZM17.5795 43.1541C16.8272 43.1541 16.1792 42.9934 15.6357 42.6719C15.0954 42.3471 14.6778 41.8913 14.3828 41.3047C14.0911 40.7147 13.9453 40.0237 13.9453 39.2315C13.9453 38.4493 14.0911 37.7599 14.3828 37.1634C14.6778 36.5668 15.0888 36.1011 15.6158 35.7663C16.1461 35.4316 16.7659 35.2642 17.4751 35.2642C17.906 35.2642 18.3236 35.3355 18.728 35.478C19.1323 35.6205 19.4953 35.8442 19.8168 36.1491C20.1383 36.4541 20.3918 36.8501 20.5774 37.3374C20.763 37.8213 20.8558 38.4096 20.8558 39.1023V39.6293H14.7855V38.5156H19.3991C19.3991 38.1245 19.3196 37.7782 19.1605 37.4766C19.0014 37.1716 18.7777 36.9313 18.4893 36.7557C18.2043 36.58 17.8696 36.4922 17.4851 36.4922C17.0675 36.4922 16.7029 36.5949 16.3913 36.8004C16.0831 37.0026 15.8445 37.2678 15.6754 37.5959C15.5097 37.9207 15.4268 38.2737 15.4268 38.6548V39.5249C15.4268 40.0353 15.5163 40.4695 15.6953 40.8274C15.8776 41.1854 16.1312 41.4588 16.456 41.6477C16.7808 41.8333 17.1603 41.9261 17.5945 41.9261C17.8762 41.9261 18.133 41.8864 18.3651 41.8068C18.5971 41.724 18.7976 41.6013 18.9666 41.4389C19.1357 41.2765 19.2649 41.076 19.3544 40.8374L20.7614 41.0909C20.6487 41.5052 20.4465 41.8681 20.1548 42.1797C19.8665 42.4879 19.5036 42.7282 19.0661 42.9006C18.6319 43.0696 18.1364 43.1541 17.5795 43.1541ZM24.147 43L21.8999 35.3636H23.4361L24.9325 40.9716H25.0071L26.5085 35.3636H28.0447L29.5362 40.9467H29.6108L31.0973 35.3636H32.6335L30.3913 43H28.875L27.3239 37.4865H27.2095L25.6584 43H24.147ZM38.7287 43H37.098L40.7621 32.8182H42.5369L46.201 43H44.5703L41.6918 34.6676H41.6122L38.7287 43ZM39.0021 39.0128H44.2919V40.3054H39.0021V39.0128ZM49.0385 38.4659V43H47.552V35.3636H48.9789V36.6065H49.0733C49.249 36.2022 49.5241 35.8774 49.8986 35.6321C50.2765 35.3868 50.7521 35.2642 51.3255 35.2642C51.8458 35.2642 52.3016 35.3736 52.6926 35.5923C53.0837 35.8078 53.387 36.1293 53.6025 36.5568C53.8179 36.9844 53.9256 37.513 53.9256 38.1428V43H52.4391V38.3217C52.4391 37.7682 52.2949 37.3357 52.0066 37.0241C51.7182 36.7093 51.3221 36.5518 50.8184 36.5518C50.4737 36.5518 50.1671 36.6264 49.8986 36.7756C49.6335 36.9247 49.423 37.1435 49.2672 37.4318C49.1148 37.7169 49.0385 38.0616 49.0385 38.4659ZM58.7779 43.1491C58.1614 43.1491 57.6112 42.9917 57.1273 42.6768C56.6467 42.3587 56.2689 41.9062 55.9938 41.3196C55.722 40.7296 55.5861 40.022 55.5861 39.1967C55.5861 38.3714 55.7237 37.6655 55.9988 37.0788C56.2772 36.4922 56.6583 36.0431 57.1422 35.7315C57.6261 35.42 58.1747 35.2642 58.7878 35.2642C59.2618 35.2642 59.6429 35.3438 59.9313 35.5028C60.223 35.6586 60.4483 35.8409 60.6074 36.0497C60.7698 36.2585 60.8958 36.4425 60.9853 36.6016H61.0748V32.8182H62.5613V43H61.1096V41.8118H60.9853C60.8958 41.9742 60.7665 42.1598 60.5975 42.3686C60.4318 42.5774 60.2031 42.7597 59.9114 42.9155C59.6197 43.0713 59.2419 43.1491 58.7779 43.1491ZM59.106 41.8814C59.5336 41.8814 59.8948 41.7687 60.1898 41.5433C60.4881 41.3146 60.7135 40.9981 60.8659 40.5938C61.0217 40.1894 61.0996 39.7187 61.0996 39.1818C61.0996 38.6515 61.0234 38.1875 60.8709 37.7898C60.7185 37.392 60.4947 37.0821 60.1998 36.8601C59.9048 36.638 59.5402 36.527 59.106 36.527C58.6586 36.527 58.2857 36.643 57.9874 36.875C57.6891 37.107 57.4637 37.4235 57.3113 37.8246C57.1621 38.2256 57.0875 38.678 57.0875 39.1818C57.0875 39.6922 57.1638 40.1513 57.3162 40.5589C57.4687 40.9666 57.6941 41.2898 57.9924 41.5284C58.294 41.7637 58.6652 41.8814 59.106 41.8814ZM76.964 36.1293H75.4128C75.3532 35.7978 75.2421 35.5062 75.0797 35.2543C74.9173 35.0024 74.7185 34.7886 74.4831 34.6129C74.2478 34.4373 73.9843 34.3047 73.6926 34.2152C73.4043 34.1257 73.0977 34.081 72.7729 34.081C72.1863 34.081 71.6609 34.2285 71.1969 34.5234C70.7362 34.8184 70.3716 35.2509 70.1032 35.821C69.838 36.3911 69.7054 37.0871 69.7054 37.9091C69.7054 38.7377 69.838 39.437 70.1032 40.0071C70.3716 40.5772 70.7379 41.008 71.2019 41.2997C71.6659 41.5914 72.1879 41.7372 72.7679 41.7372C73.0894 41.7372 73.3944 41.6941 73.6827 41.608C73.9744 41.5185 74.2379 41.3875 74.4732 41.2152C74.7085 41.0429 74.9074 40.8324 75.0698 40.5838C75.2355 40.3319 75.3498 40.0436 75.4128 39.7188L76.964 39.7237C76.8811 40.2242 76.7203 40.6849 76.4817 41.1058C76.2464 41.5234 75.9431 41.8847 75.5719 42.1896C75.204 42.4912 74.7831 42.7249 74.3091 42.8906C73.8352 43.0563 73.3181 43.1392 72.758 43.1392C71.8764 43.1392 71.0908 42.9304 70.4015 42.5128C69.7121 42.0919 69.1685 41.4903 68.7708 40.7081C68.3764 39.9259 68.1792 38.9929 68.1792 37.9091C68.1792 36.822 68.378 35.889 68.7757 35.1101C69.1735 34.3279 69.717 33.728 70.4064 33.3104C71.0958 32.8894 71.8797 32.679 72.758 32.679C73.2982 32.679 73.802 32.7569 74.2694 32.9126C74.74 33.0651 75.1626 33.2905 75.5371 33.5888C75.9116 33.8838 76.2215 34.245 76.4668 34.6726C76.7121 35.0968 76.8778 35.5824 76.964 36.1293ZM80.1694 38.4659V43H78.6829V32.8182H80.1495V36.6065H80.244C80.4229 36.1955 80.6964 35.8691 81.0643 35.6271C81.4322 35.3852 81.9128 35.2642 82.506 35.2642C83.0297 35.2642 83.4871 35.3719 83.8782 35.5874C84.2726 35.8028 84.5775 36.1243 84.793 36.5518C85.0117 36.9761 85.1211 37.5064 85.1211 38.1428V43H83.6346V38.3217C83.6346 37.7616 83.4904 37.3274 83.2021 37.0192C82.9137 36.7076 82.5127 36.5518 81.9989 36.5518C81.6476 36.5518 81.3327 36.6264 81.0543 36.7756C80.7792 36.9247 80.5621 37.1435 80.4031 37.4318C80.2473 37.7169 80.1694 38.0616 80.1694 38.4659ZM90.396 43.1541C89.6436 43.1541 88.9956 42.9934 88.4521 42.6719C87.9118 42.3471 87.4942 41.8913 87.1992 41.3047C86.9076 40.7147 86.7617 40.0237 86.7617 39.2315C86.7617 38.4493 86.9076 37.7599 87.1992 37.1634C87.4942 36.5668 87.9052 36.1011 88.4322 35.7663C88.9625 35.4316 89.5823 35.2642 90.2915 35.2642C90.7224 35.2642 91.14 35.3355 91.5444 35.478C91.9487 35.6205 92.3117 35.8442 92.6332 36.1491C92.9547 36.4541 93.2082 36.8501 93.3938 37.3374C93.5794 37.8213 93.6722 38.4096 93.6722 39.1023V39.6293H87.6019V38.5156H92.2156C92.2156 38.1245 92.136 37.7782 91.9769 37.4766C91.8178 37.1716 91.5941 36.9313 91.3058 36.7557C91.0207 36.58 90.686 36.4922 90.3015 36.4922C89.8839 36.4922 89.5193 36.5949 89.2077 36.8004C88.8995 37.0026 88.6609 37.2678 88.4918 37.5959C88.3261 37.9207 88.2433 38.2737 88.2433 38.6548V39.5249C88.2433 40.0353 88.3327 40.4695 88.5117 40.8274C88.694 41.1854 88.9476 41.4588 89.2724 41.6477C89.5972 41.8333 89.9767 41.9261 90.4109 41.9261C90.6926 41.9261 90.9495 41.8864 91.1815 41.8068C91.4135 41.724 91.614 41.6013 91.783 41.4389C91.9521 41.2765 92.0813 41.076 92.1708 40.8374L93.5778 41.0909C93.4651 41.5052 93.2629 41.8681 92.9712 42.1797C92.6829 42.4879 92.32 42.7282 91.8825 42.9006C91.4483 43.0696 90.9528 43.1541 90.396 43.1541ZM98.5382 43.1541C97.7991 43.1541 97.1627 42.9867 96.6291 42.652C96.0988 42.3139 95.6911 41.8482 95.4061 41.255C95.121 40.6617 94.9785 39.9822 94.9785 39.2166C94.9785 38.4411 95.1243 37.7566 95.416 37.1634C95.7077 36.5668 96.1187 36.1011 96.649 35.7663C97.1793 35.4316 97.804 35.2642 98.5233 35.2642C99.1033 35.2642 99.6203 35.3719 100.074 35.5874C100.528 35.7995 100.895 36.0978 101.173 36.4822C101.455 36.8667 101.622 37.3158 101.675 37.8295H100.229C100.149 37.4716 99.9667 37.1634 99.6816 36.9048C99.3999 36.6463 99.0221 36.517 98.5481 36.517C98.1338 36.517 97.7709 36.6264 97.4593 36.8452C97.1511 37.0606 96.9108 37.3688 96.7385 37.7699C96.5661 38.1676 96.4799 38.6383 96.4799 39.1818C96.4799 39.7386 96.5645 40.2192 96.7335 40.6236C96.9025 41.0279 97.1412 41.3411 97.4494 41.5632C97.7609 41.7853 98.1272 41.8963 98.5481 41.8963C98.8298 41.8963 99.085 41.8449 99.3137 41.7422C99.5458 41.6361 99.7396 41.4853 99.8954 41.2898C100.055 41.0942 100.166 40.8589 100.229 40.5838H101.675C101.622 41.0777 101.461 41.5185 101.193 41.9062C100.925 42.294 100.565 42.599 100.114 42.821C99.6667 43.0431 99.1414 43.1541 98.5382 43.1541ZM104.632 40.4098L104.622 38.5952H104.881L107.923 35.3636H109.703L106.233 39.0426H105.999L104.632 40.4098ZM103.265 43V32.8182H104.751V43H103.265ZM108.087 43L105.353 39.3707L106.377 38.3317L109.912 43H108.087ZM114.097 32.8182H115.842L118.502 37.4467H118.611L121.271 32.8182H123.016L119.322 39.0028V43H117.791V39.0028L114.097 32.8182ZM126.306 43.1541C125.59 43.1541 124.965 42.9901 124.431 42.6619C123.898 42.3338 123.484 41.8748 123.189 41.2848C122.894 40.6948 122.746 40.0054 122.746 39.2166C122.746 38.4245 122.894 37.7318 123.189 37.1385C123.484 36.5452 123.898 36.0845 124.431 35.7564C124.965 35.4283 125.59 35.2642 126.306 35.2642C127.022 35.2642 127.646 35.4283 128.18 35.7564C128.714 36.0845 129.128 36.5452 129.423 37.1385C129.718 37.7318 129.865 38.4245 129.865 39.2166C129.865 40.0054 129.718 40.6948 129.423 41.2848C129.128 41.8748 128.714 42.3338 128.18 42.6619C127.646 42.9901 127.022 43.1541 126.306 43.1541ZM126.311 41.9062C126.775 41.9062 127.159 41.7836 127.464 41.5384C127.769 41.2931 127.994 40.9666 128.14 40.5589C128.289 40.1513 128.364 39.7022 128.364 39.2116C128.364 38.7244 128.289 38.277 128.14 37.8693C127.994 37.4583 127.769 37.1286 127.464 36.88C127.159 36.6314 126.775 36.5071 126.311 36.5071C125.843 36.5071 125.456 36.6314 125.147 36.88C124.842 37.1286 124.615 37.4583 124.466 37.8693C124.32 38.277 124.248 38.7244 124.248 39.2116C124.248 39.7022 124.32 40.1513 124.466 40.5589C124.615 40.9666 124.842 41.2931 125.147 41.5384C125.456 41.7836 125.843 41.9062 126.311 41.9062ZM136.362 39.8331V35.3636H137.854V43H136.392V41.6776H136.312C136.137 42.0852 135.855 42.425 135.467 42.6967C135.083 42.9652 134.604 43.0994 134.03 43.0994C133.54 43.0994 133.106 42.9917 132.728 42.7763C132.353 42.5575 132.058 42.2344 131.843 41.8068C131.631 41.3793 131.525 40.8506 131.525 40.2209V35.3636H133.011V40.0419C133.011 40.5623 133.155 40.9766 133.444 41.2848C133.732 41.593 134.107 41.7472 134.567 41.7472C134.846 41.7472 135.122 41.6776 135.398 41.5384C135.676 41.3991 135.906 41.1887 136.089 40.907C136.274 40.6252 136.365 40.2673 136.362 39.8331ZM139.851 43V35.3636H141.288V36.5767H141.367C141.506 36.1657 141.752 35.8426 142.103 35.6072C142.458 35.3686 142.859 35.2493 143.306 35.2493C143.399 35.2493 143.508 35.2526 143.634 35.2592C143.763 35.2659 143.865 35.2741 143.938 35.2841V36.706C143.878 36.6894 143.772 36.6712 143.619 36.6513C143.467 36.6281 143.314 36.6165 143.162 36.6165C142.811 36.6165 142.497 36.6911 142.222 36.8402C141.951 36.986 141.735 37.1899 141.576 37.4517C141.417 37.7102 141.337 38.0052 141.337 38.3366V43H139.851ZM149.908 43H148.278L151.942 32.8182H153.717L157.381 43H155.75L152.871 34.6676H152.792L149.908 43ZM150.182 39.0128H155.472V40.3054H150.182V39.0128ZM158.732 45.8636V35.3636H160.183V36.6016H160.308C160.394 36.4425 160.518 36.2585 160.681 36.0497C160.843 35.8409 161.068 35.6586 161.357 35.5028C161.645 35.3438 162.026 35.2642 162.5 35.2642C163.117 35.2642 163.667 35.42 164.151 35.7315C164.635 36.0431 165.014 36.4922 165.289 37.0788C165.568 37.6655 165.707 38.3714 165.707 39.1967C165.707 40.022 165.569 40.7296 165.294 41.3196C165.019 41.9062 164.641 42.3587 164.161 42.6768C163.68 42.9917 163.132 43.1491 162.515 43.1491C162.051 43.1491 161.672 43.0713 161.377 42.9155C161.085 42.7597 160.856 42.5774 160.691 42.3686C160.525 42.1598 160.397 41.9742 160.308 41.8118H160.218V45.8636H158.732ZM160.188 39.1818C160.188 39.7187 160.266 40.1894 160.422 40.5938C160.578 40.9981 160.803 41.3146 161.098 41.5433C161.393 41.7687 161.754 41.8814 162.182 41.8814C162.626 41.8814 162.997 41.7637 163.296 41.5284C163.594 41.2898 163.819 40.9666 163.972 40.5589C164.128 40.1513 164.205 39.6922 164.205 39.1818C164.205 38.678 164.129 38.2256 163.977 37.8246C163.828 37.4235 163.602 37.107 163.301 36.875C163.002 36.643 162.629 36.527 162.182 36.527C161.751 36.527 161.387 36.638 161.088 36.8601C160.793 37.0821 160.57 37.392 160.417 37.7898C160.265 38.1875 160.188 38.6515 160.188 39.1818ZM167.372 45.8636V35.3636H168.824V36.6016H168.948C169.035 36.4425 169.159 36.2585 169.321 36.0497C169.484 35.8409 169.709 35.6586 169.997 35.5028C170.286 35.3438 170.667 35.2642 171.141 35.2642C171.757 35.2642 172.307 35.42 172.791 35.7315C173.275 36.0431 173.655 36.4922 173.93 37.0788C174.208 37.6655 174.347 38.3714 174.347 39.1967C174.347 40.022 174.21 40.7296 173.935 41.3196C173.66 41.9062 173.282 42.3587 172.801 42.6768C172.321 42.9917 171.772 43.1491 171.156 43.1491C170.692 43.1491 170.312 43.0713 170.017 42.9155C169.726 42.7597 169.497 42.5774 169.331 42.3686C169.165 42.1598 169.038 41.9742 168.948 41.8118H168.859V45.8636H167.372ZM168.829 39.1818C168.829 39.7187 168.907 40.1894 169.063 40.5938C169.218 40.9981 169.444 41.3146 169.739 41.5433C170.034 41.7687 170.395 41.8814 170.823 41.8814C171.267 41.8814 171.638 41.7637 171.936 41.5284C172.235 41.2898 172.46 40.9666 172.612 40.5589C172.768 40.1513 172.846 39.6922 172.846 39.1818C172.846 38.678 172.77 38.2256 172.617 37.8246C172.468 37.4235 172.243 37.107 171.941 36.875C171.643 36.643 171.27 36.527 170.823 36.527C170.392 36.527 170.027 36.638 169.729 36.8601C169.434 37.0821 169.21 37.392 169.058 37.7898C168.905 38.1875 168.829 38.6515 168.829 39.1818ZM181.735 37.228L180.388 37.4666C180.332 37.2943 180.242 37.1302 180.119 36.9744C180 36.8187 179.838 36.6911 179.632 36.5916C179.427 36.4922 179.17 36.4425 178.862 36.4425C178.441 36.4425 178.089 36.5369 177.808 36.7259C177.526 36.9115 177.385 37.1518 177.385 37.4467C177.385 37.7019 177.48 37.9074 177.669 38.0632C177.857 38.219 178.162 38.3466 178.583 38.446L179.796 38.7244C180.499 38.8868 181.023 39.1371 181.367 39.4751C181.712 39.8132 181.884 40.2524 181.884 40.7926C181.884 41.25 181.752 41.6577 181.487 42.0156C181.225 42.3703 180.859 42.6487 180.388 42.8509C179.921 43.053 179.379 43.1541 178.762 43.1541C177.907 43.1541 177.209 42.9718 176.669 42.6072C176.129 42.2393 175.798 41.7173 175.675 41.0412L177.112 40.8224C177.201 41.197 177.385 41.4804 177.664 41.6726C177.942 41.8615 178.305 41.956 178.752 41.956C179.24 41.956 179.629 41.8549 179.921 41.6527C180.212 41.4472 180.358 41.197 180.358 40.902C180.358 40.6634 180.269 40.4628 180.09 40.3004C179.914 40.138 179.644 40.0154 179.279 39.9325L177.987 39.6491C177.274 39.4867 176.747 39.2282 176.406 38.8736C176.068 38.5189 175.899 38.0698 175.899 37.5263C175.899 37.0755 176.025 36.6811 176.276 36.343C176.528 36.005 176.876 35.7415 177.32 35.5526C177.765 35.3603 178.273 35.2642 178.847 35.2642C179.672 35.2642 180.322 35.4432 180.796 35.8011C181.27 36.1558 181.583 36.6314 181.735 37.228Z" fill="#969696"/>
<path d="M4.05682 5.54545L8.59943 19.2841H8.77841L13.3125 5.54545H16.7898L10.6364 23H6.73295L0.588068 5.54545H4.05682ZM19.2912 23H15.9162L22.0611 5.54545H25.9645L32.1179 23H28.7429L24.081 9.125H23.9446L19.2912 23ZM19.402 16.1562H28.6065V18.696H19.402V16.1562ZM48.5369 11.4347H45.3494C45.2585 10.9119 45.0909 10.4489 44.8466 10.0455C44.6023 9.63636 44.2983 9.28977 43.9347 9.00568C43.571 8.72159 43.1563 8.50852 42.6903 8.36648C42.2301 8.21875 41.733 8.14489 41.1989 8.14489C40.25 8.14489 39.4091 8.38352 38.6761 8.86079C37.9432 9.33239 37.3693 10.0256 36.9545 10.9403C36.5398 11.8494 36.3324 12.9602 36.3324 14.2727C36.3324 15.608 36.5398 16.733 36.9545 17.6477C37.375 18.5568 37.9489 19.2443 38.6761 19.7102C39.4091 20.1705 40.2472 20.4006 41.1903 20.4006C41.7131 20.4006 42.2017 20.3324 42.6562 20.196C43.1165 20.054 43.5284 19.8466 43.892 19.5739C44.2614 19.3011 44.571 18.9659 44.821 18.5682C45.0767 18.1705 45.2528 17.7159 45.3494 17.2045L48.5369 17.2216C48.4176 18.0511 48.1591 18.8295 47.7614 19.5568C47.3693 20.2841 46.8551 20.9261 46.2188 21.483C45.5824 22.0341 44.8381 22.4659 43.9858 22.7784C43.1335 23.0852 42.1875 23.2386 41.1477 23.2386C39.6136 23.2386 38.2443 22.8835 37.0398 22.1733C35.8352 21.4631 34.8864 20.4375 34.1932 19.0966C33.5 17.7557 33.1534 16.1477 33.1534 14.2727C33.1534 12.392 33.5028 10.7841 34.2017 9.44886C34.9006 8.10795 35.8523 7.08239 37.0568 6.37216C38.2614 5.66193 39.625 5.30682 41.1477 5.30682C42.1193 5.30682 43.0227 5.44318 43.858 5.71591C44.6932 5.98864 45.4375 6.3892 46.0909 6.91761C46.7443 7.44034 47.2813 8.08239 47.7017 8.84375C48.1278 9.59943 48.4063 10.4631 48.5369 11.4347ZM50.2393 5.54545H53.8104L58.0803 13.267H58.2507L62.5206 5.54545H66.0916L59.7422 16.4886V23H56.5888V16.4886L50.2393 5.54545ZM68.7912 23H65.4162L71.5611 5.54545H75.4645L81.6179 23H78.2429L73.581 9.125H73.4446L68.7912 23ZM68.902 16.1562H78.1065V18.696H68.902V16.1562Z" fill="black"/>
</svg>
